# xmcd
#
# Track frame offsets: 
#        150
#        14848
#        36403
#        49926
#        66450
#        83317
#        103256
#        121095
#        138677
#        152842
#        172207
#        185935
#
# Disc length: 2708 seconds
#
# Revision: 0
# Processed by: cddbd v1.5.2PL0 Copyright (c) Steve Scherf et al.
# Submitted via: ExactAudioCopy v0.95b4
#
DISCID=b60a920c
DTITLE=Enya - And Winter Came
DYEAR=2008
DGENRE=Polka
TTITLE0=And Winter Came
TTITLE1=Journey Of The Angels
TTITLE2=White Is In The Winter Night
TTITLE3=O Come O Come Emmanuel
TTITLE4=Trains And Winter Rains
TTITLE5=Dreams Are More Precious
TTITLE6=Last Time By Moonlight
TTITLE7=One Toy Soldier
TTITLE8=Stars And Midnight Blue
TTITLE9=Spirit Of Christmas Past
TTITLE10=My Time Flies
TTITLE11=Oiche Chiuin (Chorale)
EXTD=
EXTT0=
EXTT1=
EXTT2=
EXTT3=
EXTT4=
EXTT5=
EXTT6=
EXTT7=
EXTT8=
EXTT9=
EXTT10=
EXTT11=
PLAYORDER=
